<?xml version="1.0" encoding="utf-8"?>
<!-- Svg Vector Icons : http://www.onlinewebfonts.com/icon -->
<!DOCTYPE svg PUBLIC "-//W3C//DTD SVG 1.1//EN" "http://www.w3.org/Graphics/SVG/1.1/DTD/svg11.dtd">
<svg fill="#B9BDCF" version="1.1" xmlns="http://www.w3.org/2000/svg" xmlns:xlink="http://www.w3.org/1999/xlink" x="0px" y="0px" viewBox="0 0 1000 1000" enable-background="new 0 0 1000 1000" xml:space="preserve">
<metadata> Svg Vector Icons : http://www.onlinewebfonts.com/icon </metadata>
<g><g transform="translate(0.000000,512.000000) scale(0.100000,-0.100000)"><path d="M4561.3,5000.8C3410.5,4891.6,2365,4399.6,1545.5,3576.2c-413.6-413.6-702.7-815.7-947.8-1321.2c-160.8-331.3-252.8-578.3-335.1-899.9C117.1,784.5,69.3,242.6,119-291.6c90-961.2,421.2-1807.5,1009.1-2581.1c191.5-250.8,630-689.3,880.8-880.8C2943.3-4463.8,4050-4821.9,5174-4774c1269.5,51.7,2387.7,541.9,3283.8,1438c896.1,896.1,1386.3,2014.3,1438,3283.8c47.9,1124-310.2,2230.7-1020.6,3165.1c-191.5,250.8-629.9,689.3-880.8,880.8c-773.5,587.8-1619.9,919.1-2581.1,1009.1C5174,5023.8,4800.6,5023.8,4561.3,5000.8z M5348.2,4026.2c1254.2-122.5,2355.1-813.8,3008.1-1886c241.3-396.4,398.3-802.3,494-1279.1c252.8-1256.1-157-2584.9-1079.9-3509.7C6964.3-3452.8,5825-3881.8,4727.9-3789.9c-532.3,44-1060.8,187.6-1493.5,407.8C2476.1-2995.2,1804-2298.3,1446-1530.4C752.8-35,1064.9,1718.9,2234.8,2886.9c231.7,231.7,517,453.8,788.9,614.6C3716.9,3911.3,4565.1,4102.8,5348.2,4026.2z"/><path d="M4503.8,1108.1V-356.7l53.6-36.4C4626.4-442.9,7016-1911.5,7042.8-1923c11.5-3.8,97.7,114.9,189.6,266.2c91.9,149.3,180,291,193.4,314c26.8,38.3-5.7,59.3-1074.2,698.9L5252.5,14.8l-1.9,1279.1V2571h-373.4h-373.4V1108.1z"/></g></g>
</svg>